<svg height="512" viewBox="0 0 64 64" width="512" xmlns="http://www.w3.org/2000/svg"><g id="database"><g fill="#ffeb99"><path d="m39 28v10c0 2.76-8.06 5-18 5s-18-2.24-18-5v-10c0 2.76 8.06 5 18 5s18-2.24 18-5z"/><path d="m39 18v10c0 2.76-8.06 5-18 5s-18-2.24-18-5v-10c0 2.76 8.06 5 18 5s18-2.24 18-5z"/><path d="m39 8v10c0 2.76-8.06 5-18 5s-18-2.24-18-5v-10c0 2.76 8.06 5 18 5s18-2.24 18-5z"/></g><ellipse cx="21" cy="8" fill="#ffcd00" rx="18" ry="5"/><path d="m39 18v10c0 1.19-1.5 2.28-4 3.14v-10c2.5-.86 4-1.95 4-3.14z" fill="#ffcd00"/><path d="m39 8v10c0 1.19-1.5 2.28-4 3.14v-10c2.5-.86 4-1.95 4-3.14z" fill="#ffcd00"/><path d="m39 8c0 2.76-8.06 5-18 5-.68 0-1.34-.01-2-.04 9-.27 16-2.39 16-4.96s-7-4.69-16-4.96c.66-.03 1.32-.04 2-.04 9.94 0 18 2.24 18 5z" fill="#ebbf00"/><path d="m39 28v10c0 2.76-8.06 5-18 5-.68 0-1.34-.01-2-.04 9-.27 16-2.39 16-4.96v-6.86c2.5-.86 4-1.95 4-3.14z" fill="#ffcd00"/><path d="m29.85 32.35a12.833 12.833 0 0 0 -1.71 4.85 9.977 9.977 0 0 0 -8.14-4.2v-.01c.33.01.67.01 1 .01a56.765 56.765 0 0 0 8.85-.65z" fill="#ffeb99"/><path d="m61 54a7 7 0 0 1 -7 7h-44a7 7 0 0 1 0-14h.84a9.994 9.994 0 0 1 17.3-9.8 12.991 12.991 0 1 1 23.09 9.8h2.77a7 7 0 0 1 7 7z" fill="#57a4ff"/><path d="m61 54a7 7 0 0 1 -7 7h-4a7 7 0 0 0 0-14h-2.77a12.98 12.98 0 0 0 -8.21-20.84 11.758 11.758 0 0 1 1.98-.16 12.984 12.984 0 0 1 10.23 21h2.77a7 7 0 0 1 7 7z" fill="#2488ff"/><path d="m55 29a3 3 0 1 0 -3 3 3 3 0 0 0 3-3z" fill="#c0ab91"/><path d="m61 31-2.6.65 1.38 2.3-2.83 2.83-2.3-1.38-.65 2.6h-4l-.65-2.6-2.3 1.38-2.83-2.83 1.38-2.3-2.6-.65v-4l1.76-.44.84-.21-1.38-2.3 2.83-2.83 2.3 1.38.65-2.6h4l.65 2.6 2.3-1.38 2.83 2.83-1.38 2.3 2.6.65z" fill="#c0ab91"/><path d="m61 31-2.6.65 1.38 2.3-2.83 2.83-2.3-1.38-.65 2.6h-4l-.65-2.6-2.3 1.38-1.2-1.2a16.738 16.738 0 0 0 10.15-7.58 15.59 15.59 0 0 0 1.89-5.84l1.89 1.89-1.38 2.3 2.6.65z" fill="#b39a7c"/><circle cx="52" cy="29" fill="#ffde55" r="3"/><path d="m6 54h2a2 2 0 0 1 2-2v-2a4 4 0 0 0 -4 4z"/><path d="m13 43a6.892 6.892 0 0 0 .587 2.794l1.831-.8a4.927 4.927 0 0 1 -.418-1.994 5.006 5.006 0 0 1 5-5v-2a7.008 7.008 0 0 0 -7 7z"/><path d="m62 31v-4a1 1 0 0 0 -.76-.97l-1.29-.32.69-1.15a1.014 1.014 0 0 0 -.15-1.22l-2.83-2.83a1.014 1.014 0 0 0 -1.22-.15l-1.15.69-.32-1.29a1 1 0 0 0 -.97-.76h-4a1 1 0 0 0 -.97.76l-.32 1.29-1.15-.69a1.014 1.014 0 0 0 -1.22.15l-2.83 2.83a1.014 1.014 0 0 0 -.15 1.22l.44.73a13.714 13.714 0 0 0 -2.8-.29c-.34 0-.67.02-1 .04v-18.04h-.24c-1.48-3.28-10.16-5-18.76-5-9.44 0-19 2.06-19 6v30c0 2.51 3.64 3.96 7.01 4.76 0 .08-.01.16-.01.24a10.957 10.957 0 0 0 .42 3.02 8 8 0 0 0 .58 15.98h44a8 8 0 0 0 0-16h-.88a13.88 13.88 0 0 0 1.88-7c0-.26-.02-.51-.03-.76l.32-1.29 1.15.69a1.014 1.014 0 0 0 1.22-.15l2.83-2.83a1.014 1.014 0 0 0 .15-1.22l-.69-1.15 1.29-.32a1 1 0 0 0 .76-.97zm-41-27c11 0 17 2.64 17 4s-6 4-17 4-17-2.64-17-4 6-4 17-4zm-17 6.82c3.29 2.09 10.16 3.18 17 3.18s13.71-1.09 17-3.18v7.18c0 1.36-6 4-17 4s-17-2.64-17-4zm0 10c3.29 2.09 10.16 3.18 17 3.18s13.71-1.09 17-3.18v4.52a14.036 14.036 0 0 0 -8.73 6.08 56.2 56.2 0 0 1 -8.27.58c-11 0-17-2.64-17-4zm24.11 12.78a14.527 14.527 0 0 0 -.52 1.44 11.815 11.815 0 0 0 -1.58-1.24c.72-.06 1.42-.12 2.1-.2zm-18.88 7.15c-3.81-.94-5.23-2.13-5.23-2.75v-7.18c2.19 1.39 5.95 2.34 10.26 2.82a11.023 11.023 0 0 0 -5.03 7.11zm44.77 7.25a6 6 0 0 1 0 12h-44a6 6 0 0 1 0-12h.84a1.013 1.013 0 0 0 .84-.45 1.034 1.034 0 0 0 .08-.95 8.747 8.747 0 0 1 -.76-3.6 9 9 0 0 1 16.33-5.22.991.991 0 0 0 1.05.39 1 1 0 0 0 .75-.83 12.031 12.031 0 0 1 11.87-10.34c.34 0 .67.02 1 .04v3.96a1 1 0 0 0 .76.97l1.29.32-.69 1.15a1.014 1.014 0 0 0 .15 1.22l2.83 2.83a1.014 1.014 0 0 0 1.22.15l1.15-.69.32 1.29a1 1 0 0 0 .97.76h3a11.818 11.818 0 0 1 -2.56 7.38 1 1 0 0 0 .79 1.62zm6-17.78-1.84.46a1.045 1.045 0 0 0 -.69.59 1.023 1.023 0 0 0 .07.9l.98 1.62-1.73 1.73-1.62-.98a1.023 1.023 0 0 0 -.9-.07 1.045 1.045 0 0 0 -.59.69l-.46 1.84h-2.44l-.46-1.84a1.045 1.045 0 0 0 -.59-.69 1.023 1.023 0 0 0 -.9.07l-1.62.98-1.73-1.73.98-1.62a1.023 1.023 0 0 0 .07-.9 1.045 1.045 0 0 0 -.69-.59l-1.84-.46v-2.44l1.84-.46a1.045 1.045 0 0 0 .69-.59 1.023 1.023 0 0 0 -.07-.9l-.98-1.62 1.73-1.73 1.62.98a1.023 1.023 0 0 0 .9.07 1.045 1.045 0 0 0 .59-.69l.46-1.84h2.44l.46 1.84a1.045 1.045 0 0 0 .59.69 1.023 1.023 0 0 0 .9-.07l1.62-.98 1.73 1.73-.98 1.62a1.023 1.023 0 0 0 -.07.9 1.045 1.045 0 0 0 .69.59l1.84.46z"/><path d="m52 25a4 4 0 1 0 4 4 4 4 0 0 0 -4-4zm0 6a2 2 0 1 1 2-2 2 2 0 0 1 -2 2z"/></g></svg>